<svg width="1280" height="640" viewBox="0 0 1280 640" fill="none" xmlns="http://www.w3.org/2000/svg">
  <defs>
    <linearGradient id="bg" x1="0" y1="0" x2="1280" y2="640" gradientUnits="userSpaceOnUse">
      <stop stop-color="#0B1020"/>
      <stop offset="0.48" stop-color="#112A46"/>
      <stop offset="1" stop-color="#102F28"/>
    </linearGradient>
    <linearGradient id="line" x1="250" y1="146" x2="1020" y2="494" gradientUnits="userSpaceOnUse">
      <stop stop-color="#6EE7F9"/>
      <stop offset="0.55" stop-color="#A7F3D0"/>
      <stop offset="1" stop-color="#FDE68A"/>
    </linearGradient>
    <filter id="soft" x="-30%" y="-30%" width="160%" height="160%" color-interpolation-filters="sRGB">
      <feGaussianBlur stdDeviation="18"/>
    </filter>
    <filter id="shadow" x="-20%" y="-20%" width="140%" height="140%" color-interpolation-filters="sRGB">
      <feDropShadow dx="0" dy="24" stdDeviation="24" flood-color="#020617" flood-opacity="0.45"/>
    </filter>
  </defs>

  <rect width="1280" height="640" fill="url(#bg)"/>
  <path d="M0 488C162 404 274 407 392 464C544 538 653 510 761 415C887 304 999 266 1280 330V640H0V488Z" fill="#0F766E" opacity="0.22"/>
  <path d="M0 126C182 198 316 210 461 156C628 94 777 107 925 178C1053 239 1152 247 1280 208V0H0V126Z" fill="#2563EB" opacity="0.16"/>

  <g opacity="0.45">
    <circle cx="240" cy="172" r="86" fill="#22D3EE" filter="url(#soft)"/>
    <circle cx="1018" cy="430" r="110" fill="#84CC16" filter="url(#soft)"/>
  </g>

  <g filter="url(#shadow)">
    <rect x="120" y="118" width="1040" height="404" rx="28" fill="#0F172A" fill-opacity="0.74" stroke="#94A3B8" stroke-opacity="0.24"/>
    <rect x="164" y="162" width="300" height="316" rx="18" fill="#111827" stroke="#38BDF8" stroke-opacity="0.28"/>
    <rect x="816" y="162" width="300" height="316" rx="18" fill="#111827" stroke="#A7F3D0" stroke-opacity="0.28"/>
  </g>

  <g stroke="url(#line)" stroke-width="4" stroke-linecap="round" opacity="0.85">
    <path d="M465 234C545 222 600 250 640 320C680 390 735 418 816 406"/>
    <path d="M465 320H816"/>
    <path d="M465 406C548 414 604 388 640 320C678 250 733 224 816 234"/>
  </g>

  <g>
    <rect x="196" y="200" width="232" height="46" rx="10" fill="#1E293B"/>
    <rect x="196" y="272" width="184" height="46" rx="10" fill="#1E293B"/>
    <rect x="196" y="344" width="212" height="46" rx="10" fill="#1E293B"/>
    <path d="M226 210V236L240 228L254 236V210H226Z" fill="#38BDF8"/>
    <path d="M226 282V308L240 300L254 308V282H226Z" fill="#A7F3D0"/>
    <path d="M226 354V380L240 372L254 380V354H226Z" fill="#FDE68A"/>
    <rect x="274" y="216" width="116" height="8" rx="4" fill="#CBD5E1" opacity="0.76"/>
    <rect x="274" y="288" width="72" height="8" rx="4" fill="#CBD5E1" opacity="0.76"/>
    <rect x="274" y="360" width="96" height="8" rx="4" fill="#CBD5E1" opacity="0.76"/>
  </g>

  <g>
    <rect x="852" y="203" width="228" height="42" rx="10" fill="#1E293B"/>
    <rect x="852" y="270" width="190" height="42" rx="10" fill="#1E293B"/>
    <rect x="852" y="337" width="216" height="42" rx="10" fill="#1E293B"/>
    <rect x="880" y="217" width="118" height="7" rx="3.5" fill="#A7F3D0"/>
    <rect x="880" y="284" width="86" height="7" rx="3.5" fill="#38BDF8"/>
    <rect x="880" y="351" width="106" height="7" rx="3.5" fill="#FDE68A"/>
    <circle cx="1040" cy="224" r="9" fill="#A7F3D0"/>
    <circle cx="1002" cy="291" r="9" fill="#38BDF8"/>
    <circle cx="1028" cy="358" r="9" fill="#FDE68A"/>
  </g>

  <g text-anchor="middle">
    <text x="640" y="276" fill="#F8FAFC" font-family="Inter, ui-sans-serif, system-ui, Segoe UI, Arial" font-size="58" font-weight="800" letter-spacing="0">Bookmark KB Skill</text>
    <text x="640" y="328" fill="#C7D2FE" font-family="Inter, ui-sans-serif, system-ui, Segoe UI, Arial" font-size="24" font-weight="600" letter-spacing="0">Chrome bookmarks to local AI context</text>
    <text x="640" y="378" fill="#A7F3D0" font-family="Inter, ui-sans-serif, system-ui, Segoe UI, Arial" font-size="20" font-weight="600" letter-spacing="0">npx install · local cache · search · context · organize</text>
  </g>
</svg>
